Coordinates
version=1
nRows=8
nColumns=42
inDegrees=yes

Units are S.I. units (second, meters, Newtons, ...)
If the header above contains a line with 'inDegrees', this indicates whether rotational values are in degrees (yes) or radians (no).

endheader
time	pelvis_tilt	pelvis_list	pelvis_rotation	pelvis_tx	pelvis_ty	pelvis_tz	hip_flexion_r	hip_adduction_r	hip_rotation_r	knee_angle_r	knee_angle_r_beta	ankle_angle_r	subtalar_angle_r	mtp_angle_r	hip_flexion_l	hip_adduction_l	hip_rotation_l	knee_angle_l	knee_angle_l_beta	ankle_angle_l	subtalar_angle_l	mtp_angle_l	lumbar_extension	lumbar_bending	lumbar_rotation	sh_tx_r	sh_ty_r	sh_tz_r	sh_plane_elev_r	sh_elev_r	sh_axial_rot_r	elbow_flex_r	pro_sup_r	sh_tx_l	sh_ty_l	sh_tz_l	sh_plane_elev_l	sh_elev_l	sh_axial_rot_l	elbow_flex_l	pro_sup_l
      3.49152540	     -6.13729700	     -0.02611844	      1.60251598	      0.31193319	      0.93293160	     -0.06268293	      3.71271571	     -5.89634482	     -3.63667775	      1.09029609	      0.01902926	      1.89062486	     -4.12207552	     -7.49999987	      3.60769459	     -1.67159117	     -6.98053298	      1.51048360	      0.02636291	      9.35643110	      3.44838898	     -7.49999987	      5.05053917	      2.32223987	     -9.55912273	      0.01039022	     -0.01617893	     -0.00654934	     -1.45813449	      6.09770294	      1.07564716	     26.23453612	     90.36669596	     -0.00085876	      0.00939968	     -0.00487209	      5.72666530	     43.26358068	    -36.48008922	     30.06611658	     15.65651854
      3.50847460	     -6.12658451	     -0.03417026	      1.54713143	      0.31204400	      0.93295892	     -0.06253054	      3.68235053	     -5.88928928	     -3.58448700	      1.04360642	      0.01821437	      1.83992500	     -4.06117914	     -7.49999987	      3.54406104	     -1.66293521	     -6.91220333	      1.42985416	      0.02495566	      9.24429807	      3.34516473	     -7.49999987	      5.08635460	      2.38635416	     -9.89525014	      0.01138835	     -0.01614404	     -0.00662962	     -1.31152357	      6.07982103	      1.21895432	     26.41620640	     88.90255167	     -0.00136496	      0.00952213	     -0.00476757	      4.83875829	     43.05936135	    -36.58032511	     30.30562463	     18.17957232
      3.52542370	     -6.46060020	     -0.17018621	      1.52990064	      0.31140227	      0.93198498	     -0.06285126	      4.32737528	     -5.79998794	     -3.99359380	      1.56339885	      0.02728646	      2.12092545	     -3.44072710	     -7.49999987	      4.18206728	     -1.80139709	     -6.71248429	      1.92440768	      0.03358725	      9.23796182	      2.93069053	     -7.49999987	      5.44998579	      2.62431174	     -9.26440609	      0.00868839	     -0.01363038	     -0.00591099	      0.02901293	      6.59965611	      2.97895746	     26.43607857	     85.61604135	      0.00354788	      0.01059728	     -0.00470531	      3.87622603	     42.38441425	    -35.58846157	     31.79969286	     23.14004618
      3.54237290	     -6.03830221	     -0.09812448	      1.49812365	      0.31184711	      0.93275146	     -0.06243812	      3.56129298	     -5.81155762	     -3.65442821	      0.98363274	      0.01716763	      1.86976066	     -3.89800498	     -7.49999987	      3.41859637	     -1.72609339	     -6.90645933	      1.30972274	      0.02285897	      9.30756590	      3.47091559	     -7.49999987	      4.94958842	      2.53964133	     -9.36856765	      0.00966585	     -0.01610009	     -0.00658202	     -1.40661922	      6.14084980	      0.89566348	     26.49351336	     89.76350434	     -0.00129831	      0.00936327	     -0.00496015	      5.61573551	     43.20312354	    -35.53207449	     29.98511119	     15.32582822
      3.55932200	     -6.05365335	     -0.14113932	      1.48955145	      0.31170255	      0.93238401	     -0.06244605	      3.55947122	     -5.76443449	     -3.73991169	      0.94580207	      0.01650736	      1.91228933	     -3.81995165	     -7.49999987	      3.43511379	     -1.77163801	     -6.80940453	      1.27062717	      0.02217663	      9.28776213	      3.34187433	     -7.49999987	      5.00853742	      2.60880369	     -9.42820306	      0.01017709	     -0.01604063	     -0.00657889	     -2.10962067	      6.08776635	      1.07476780	     26.70908321	     91.30712629	     -0.00114038	      0.00936929	     -0.00496411	      5.32615345	     43.27121848	    -35.32975835	     29.86114825	     15.29580859
      3.57627120	     -6.02175817	     -0.19100098	      1.46094295	      0.31169638	      0.93252253	     -0.06242779	      3.52658340	     -5.71224996	     -3.77075611	      0.93022965	      0.01623557	      1.88956579	     -3.80593858	     -7.49999987	      3.39980402	     -1.83273320	     -6.80796490	      1.22919813	      0.02145355	      9.30329197	      3.36067183	     -7.49999987	      4.95452794	      2.66646191	     -9.37768118	      0.01016328	     -0.01599558	     -0.00656547	     -1.94923015	      6.09559921	      1.01715706	     26.72873011	     90.69995318	     -0.00103589	      0.00935844	     -0.00495418	      5.31311385	     43.27897462	    -36.14105032	     29.91083578	     16.14666840
      3.59322030	     -6.06754603	     -0.20924125	      1.43720714	      0.31162020	      0.93214478	     -0.06229659	      3.56448132	     -5.68664939	     -3.80596269	      0.90889636	      0.01586323	      2.00677234	     -3.68897750	     -7.49999987	      3.45332008	     -1.86774271	     -6.98017289	      1.22037638	      0.02129959	      9.40222672	      3.64857988	     -7.49999987	      5.26416782	      2.58368838	     -9.55349500	      0.01181545	     -0.01602405	     -0.00656687	     -1.28770830	      6.07221728	      1.62458003	     26.08202063	     88.24022388	      0.00096718	      0.00981178	     -0.00491153	      4.32530388	     43.13407050	    -35.97649351	     30.16728400	     20.55902045
      3.61016950	     -6.23808172	     -0.26505380	      1.40274049	      0.31107775	      0.93191774	     -0.06253048	      4.05275917	     -5.68899866	     -3.96732338	      1.46201202	      0.02551692	      2.24177159	     -3.73959759	     -7.49999987	      3.93013038	     -1.94350187	     -6.74328408	      1.74991912	      0.03054185	      9.49105066	      3.11205184	     -7.49999987	      5.04952249	      2.81508371	     -9.11347766	      0.00850369	     -0.01339192	     -0.00589592	     -0.14299228	      6.34556444	      0.60540559	     26.66597999	     85.55852104	      0.00038947	      0.00970519	     -0.00485583	      5.29275578	     43.19422618	    -37.56424815	     30.37619244	     21.75303786
